<mxfile host="app.diagrams.net" modified="2021-04-17T13:02:56.199Z" agent="5.0 (Windows NT 10.0; Win64; x64) AppleWebKit/537.36 (KHTML, like Gecko) Chrome/89.0.4389.128 Safari/537.36" etag="9xIsQBK3-VXZMrr1fjz8" version="14.6.1" type="github">
  <diagram id="C5RBs43oDa-KdzZeNtuy" name="Page-1">
    <mxGraphModel dx="378" dy="496" grid="1" gridSize="10" guides="1" tooltips="1" connect="1" arrows="1" fold="1" page="1" pageScale="1" pageWidth="827" pageHeight="1169" math="0" shadow="0">
      <root>
        <mxCell id="WIyWlLk6GJQsqaUBKTNV-0" />
        <mxCell id="WIyWlLk6GJQsqaUBKTNV-1" parent="WIyWlLk6GJQsqaUBKTNV-0" />
        <mxCell id="MZMsk0-efmm3y5bZXejP-6" style="edgeStyle=orthogonalEdgeStyle;rounded=0;orthogonalLoop=1;jettySize=auto;html=1;entryX=0.5;entryY=0;entryDx=0;entryDy=0;fontFamily=Comic Sans MS;fontSize=18;" edge="1" parent="WIyWlLk6GJQsqaUBKTNV-1" source="MZMsk0-efmm3y5bZXejP-0" target="MZMsk0-efmm3y5bZXejP-2">
          <mxGeometry relative="1" as="geometry" />
        </mxCell>
        <mxCell id="MZMsk0-efmm3y5bZXejP-0" value="&lt;font style=&quot;font-size: 18px&quot; face=&quot;Comic Sans MS&quot;&gt;&lt;b&gt;New&lt;/b&gt;&lt;/font&gt;" style="rounded=1;whiteSpace=wrap;html=1;" vertex="1" parent="WIyWlLk6GJQsqaUBKTNV-1">
          <mxGeometry x="90" y="80" width="120" height="30" as="geometry" />
        </mxCell>
        <mxCell id="MZMsk0-efmm3y5bZXejP-1" value="&lt;font face=&quot;Comic Sans MS&quot; style=&quot;font-size: 23px&quot;&gt;PM + BA&amp;nbsp;&lt;br&gt;Task Flow&lt;/font&gt;" style="text;html=1;strokeColor=none;fillColor=none;align=center;verticalAlign=middle;whiteSpace=wrap;rounded=0;" vertex="1" parent="WIyWlLk6GJQsqaUBKTNV-1">
          <mxGeometry x="65" y="10" width="170" height="70" as="geometry" />
        </mxCell>
        <mxCell id="MZMsk0-efmm3y5bZXejP-7" style="edgeStyle=orthogonalEdgeStyle;rounded=0;orthogonalLoop=1;jettySize=auto;html=1;entryX=0.5;entryY=0;entryDx=0;entryDy=0;fontFamily=Comic Sans MS;fontSize=18;" edge="1" parent="WIyWlLk6GJQsqaUBKTNV-1" source="MZMsk0-efmm3y5bZXejP-2" target="MZMsk0-efmm3y5bZXejP-4">
          <mxGeometry relative="1" as="geometry" />
        </mxCell>
        <mxCell id="MZMsk0-efmm3y5bZXejP-9" style="edgeStyle=orthogonalEdgeStyle;rounded=0;orthogonalLoop=1;jettySize=auto;html=1;entryX=1;entryY=0.5;entryDx=0;entryDy=0;fontFamily=Comic Sans MS;fontSize=18;" edge="1" parent="WIyWlLk6GJQsqaUBKTNV-1" source="MZMsk0-efmm3y5bZXejP-2" target="MZMsk0-efmm3y5bZXejP-5">
          <mxGeometry relative="1" as="geometry">
            <Array as="points">
              <mxPoint x="230" y="170" />
              <mxPoint x="230" y="350" />
            </Array>
          </mxGeometry>
        </mxCell>
        <mxCell id="MZMsk0-efmm3y5bZXejP-2" value="&lt;font style=&quot;font-size: 18px&quot; face=&quot;Comic Sans MS&quot;&gt;In progress&lt;/font&gt;" style="rounded=1;whiteSpace=wrap;html=1;fontStyle=1" vertex="1" parent="WIyWlLk6GJQsqaUBKTNV-1">
          <mxGeometry x="90" y="140" width="120" height="60" as="geometry" />
        </mxCell>
        <mxCell id="MZMsk0-efmm3y5bZXejP-8" value="" style="edgeStyle=orthogonalEdgeStyle;rounded=0;orthogonalLoop=1;jettySize=auto;html=1;fontFamily=Comic Sans MS;fontSize=18;" edge="1" parent="WIyWlLk6GJQsqaUBKTNV-1" source="MZMsk0-efmm3y5bZXejP-4" target="MZMsk0-efmm3y5bZXejP-5">
          <mxGeometry relative="1" as="geometry" />
        </mxCell>
        <mxCell id="MZMsk0-efmm3y5bZXejP-4" value="Need more information" style="rounded=1;whiteSpace=wrap;html=1;fontSize=18;fontFamily=Comic Sans MS;fontStyle=1" vertex="1" parent="WIyWlLk6GJQsqaUBKTNV-1">
          <mxGeometry x="90" y="230" width="120" height="60" as="geometry" />
        </mxCell>
        <mxCell id="MZMsk0-efmm3y5bZXejP-5" value="Closed" style="rounded=1;whiteSpace=wrap;html=1;fontFamily=Comic Sans MS;fontSize=18;fontStyle=1" vertex="1" parent="WIyWlLk6GJQsqaUBKTNV-1">
          <mxGeometry x="90" y="320" width="120" height="60" as="geometry" />
        </mxCell>
      </root>
    </mxGraphModel>
  </diagram>
</mxfile>
